<mxfile host="app.diagrams.net" agent="Mozilla/5.0 (Windows NT 10.0; Win64; x64) AppleWebKit/537.36 (KHTML, like Gecko) Chrome/128.0.0.0 Safari/537.36" version="24.7.10">
  <diagram name="Page-1" id="D8L0fwMmEL1XSVmyjN7t">
    <mxGraphModel dx="1430" dy="763" grid="1" gridSize="10" guides="1" tooltips="1" connect="1" arrows="1" fold="1" page="1" pageScale="1" pageWidth="850" pageHeight="1100" math="0" shadow="0">
      <root>
        <mxCell id="0" />
        <mxCell id="1" parent="0" />
        <mxCell id="ti-B7qjp64Do_ES1CstO-19" value="" style="edgeStyle=orthogonalEdgeStyle;rounded=0;orthogonalLoop=1;jettySize=auto;html=1;" edge="1" parent="1" source="ti-B7qjp64Do_ES1CstO-2" target="ti-B7qjp64Do_ES1CstO-3">
          <mxGeometry relative="1" as="geometry" />
        </mxCell>
        <mxCell id="ti-B7qjp64Do_ES1CstO-2" value="&lt;b&gt;Deck,&lt;br&gt;Hand,&lt;br&gt;Limit&lt;/b&gt;" style="shape=parallelogram;perimeter=parallelogramPerimeter;whiteSpace=wrap;html=1;fixedSize=1;" vertex="1" parent="1">
          <mxGeometry x="250" y="200" width="120" height="60" as="geometry" />
        </mxCell>
        <mxCell id="ti-B7qjp64Do_ES1CstO-18" value="" style="edgeStyle=orthogonalEdgeStyle;rounded=0;orthogonalLoop=1;jettySize=auto;html=1;" edge="1" parent="1" source="ti-B7qjp64Do_ES1CstO-3" target="ti-B7qjp64Do_ES1CstO-11">
          <mxGeometry relative="1" as="geometry" />
        </mxCell>
        <mxCell id="ti-B7qjp64Do_ES1CstO-3" value="Start" style="ellipse;whiteSpace=wrap;html=1;fillColor=#d5e8d4;strokeColor=#82b366;" vertex="1" parent="1">
          <mxGeometry x="250" y="300" width="120" height="80" as="geometry" />
        </mxCell>
        <mxCell id="ti-B7qjp64Do_ES1CstO-10" value="No" style="edgeStyle=orthogonalEdgeStyle;rounded=0;orthogonalLoop=1;jettySize=auto;html=1;" edge="1" parent="1" source="ti-B7qjp64Do_ES1CstO-4" target="ti-B7qjp64Do_ES1CstO-9">
          <mxGeometry relative="1" as="geometry" />
        </mxCell>
        <mxCell id="ti-B7qjp64Do_ES1CstO-23" value="Yes" style="edgeStyle=orthogonalEdgeStyle;rounded=0;orthogonalLoop=1;jettySize=auto;html=1;" edge="1" parent="1" source="ti-B7qjp64Do_ES1CstO-4" target="ti-B7qjp64Do_ES1CstO-22">
          <mxGeometry relative="1" as="geometry" />
        </mxCell>
        <mxCell id="ti-B7qjp64Do_ES1CstO-4" value="Is &lt;b&gt;Hand:Size&lt;br&gt;&lt;/b&gt;&amp;gt;&lt;b&gt;Limit?&lt;/b&gt;" style="rhombus;whiteSpace=wrap;html=1;" vertex="1" parent="1">
          <mxGeometry x="255" y="610" width="110" height="90" as="geometry" />
        </mxCell>
        <mxCell id="ti-B7qjp64Do_ES1CstO-13" value="" style="edgeStyle=orthogonalEdgeStyle;rounded=0;orthogonalLoop=1;jettySize=auto;html=1;" edge="1" parent="1" source="ti-B7qjp64Do_ES1CstO-9" target="ti-B7qjp64Do_ES1CstO-12">
          <mxGeometry relative="1" as="geometry" />
        </mxCell>
        <mxCell id="ti-B7qjp64Do_ES1CstO-9" value="Move Card from &lt;b&gt;Deck&lt;/b&gt;&amp;nbsp;to &lt;b&gt;Hand&lt;/b&gt;" style="rounded=1;whiteSpace=wrap;html=1;" vertex="1" parent="1">
          <mxGeometry x="420" y="625" width="120" height="60" as="geometry" />
        </mxCell>
        <mxCell id="ti-B7qjp64Do_ES1CstO-17" value="" style="edgeStyle=orthogonalEdgeStyle;rounded=0;orthogonalLoop=1;jettySize=auto;html=1;" edge="1" parent="1" source="ti-B7qjp64Do_ES1CstO-11" target="ti-B7qjp64Do_ES1CstO-14">
          <mxGeometry relative="1" as="geometry" />
        </mxCell>
        <mxCell id="ti-B7qjp64Do_ES1CstO-11" value="Set &lt;b&gt;Hand: Size to 0&lt;/b&gt;" style="rounded=1;whiteSpace=wrap;html=1;" vertex="1" parent="1">
          <mxGeometry x="250" y="410" width="120" height="60" as="geometry" />
        </mxCell>
        <mxCell id="ti-B7qjp64Do_ES1CstO-15" value="" style="edgeStyle=orthogonalEdgeStyle;rounded=0;orthogonalLoop=1;jettySize=auto;html=1;" edge="1" parent="1" source="ti-B7qjp64Do_ES1CstO-12" target="ti-B7qjp64Do_ES1CstO-14">
          <mxGeometry relative="1" as="geometry" />
        </mxCell>
        <mxCell id="ti-B7qjp64Do_ES1CstO-12" value="Increase &lt;b&gt;Hand: Size &lt;/b&gt;by 1" style="whiteSpace=wrap;html=1;rounded=1;" vertex="1" parent="1">
          <mxGeometry x="420" y="510" width="120" height="60" as="geometry" />
        </mxCell>
        <mxCell id="ti-B7qjp64Do_ES1CstO-16" value="" style="edgeStyle=orthogonalEdgeStyle;rounded=0;orthogonalLoop=1;jettySize=auto;html=1;" edge="1" parent="1" source="ti-B7qjp64Do_ES1CstO-14" target="ti-B7qjp64Do_ES1CstO-4">
          <mxGeometry relative="1" as="geometry" />
        </mxCell>
        <mxCell id="ti-B7qjp64Do_ES1CstO-14" value="" style="ellipse;whiteSpace=wrap;html=1;aspect=fixed;" vertex="1" parent="1">
          <mxGeometry x="290" y="520" width="40" height="40" as="geometry" />
        </mxCell>
        <mxCell id="ti-B7qjp64Do_ES1CstO-22" value="End" style="ellipse;whiteSpace=wrap;html=1;fillColor=#f8cecc;strokeColor=#b85450;" vertex="1" parent="1">
          <mxGeometry x="250" y="750" width="120" height="80" as="geometry" />
        </mxCell>
      </root>
    </mxGraphModel>
  </diagram>
</mxfile>
